<svg width="15" height="15" viewBox="0 0 15 15" fill="none" xmlns="http://www.w3.org/2000/svg">
<g clip-path="url(#clip0_1_495)">
<path d="M10.1723 8.82467L8.08092 7.25611V4.06094C8.08092 3.73967 7.82123 3.47998 7.49996 3.47998C7.17869 3.47998 6.91901 3.73967 6.91901 4.06094V7.54662C6.91901 7.72961 7.00499 7.90217 7.15139 8.01139L9.47516 9.75423C9.57972 9.83266 9.70174 9.87042 9.82315 9.87042C10.0003 9.87042 10.1746 9.79082 10.2885 9.63745C10.4814 9.38122 10.4291 9.01697 10.1723 8.82467Z" fill="#1A1A1A"/>
<path d="M7.5 0C3.36425 0 0 3.36425 0 7.5C0 11.6358 3.36425 15 7.5 15C11.6358 15 15 11.6358 15 7.5C15 3.36425 11.6358 0 7.5 0ZM7.5 13.8381C4.00562 13.8381 1.16188 10.9944 1.16188 7.5C1.16188 4.00562 4.00562 1.16188 7.5 1.16188C10.995 1.16188 13.8381 4.00562 13.8381 7.5C13.8381 10.9944 10.9944 13.8381 7.5 13.8381Z" fill="#1A1A1A"/>
</g>
<defs>
<clipPath id="clip0_1_495">
<rect width="15" height="15" fill="white"/>
</clipPath>
</defs>
</svg>
