<svg width="14" height="14" viewBox="0 0 14 14" fill="none" xmlns="http://www.w3.org/2000/svg">
<path d="M12.9265 0H5.18777C4.63623 0 4.18756 0.448701 4.18756 1.00021V3.34777H5.10061V1.00021C5.10061 0.952154 5.13971 0.913045 5.18777 0.913045H12.9265C12.9746 0.913045 13.0137 0.952154 13.0137 1.00021V8.73894C13.0137 8.78703 12.9746 8.82613 12.9265 8.82613H10.6521V9.73918H12.9265C13.478 9.73918 13.9267 9.29048 13.9267 8.73894V1.00021C13.9267 0.448701 13.478 0 12.9265 0Z" fill="black"/>
<path d="M8.73894 4.26074H1.00024C0.448701 4.26074 0 4.70944 0 5.26098V12.9997C3.04348e-05 13.5513 0.448701 14 1.00024 14H8.73897C9.29051 14 9.73921 13.5513 9.73921 12.9997V5.26098C9.73924 4.70944 9.29048 4.26074 8.73894 4.26074ZM8.739 13.0869H1.00024C0.952154 13.0869 0.913045 13.0478 0.913045 12.9997V5.26098C0.913045 5.2129 0.952154 5.17379 1.00024 5.17379H8.73897C8.78706 5.17379 8.82616 5.2129 8.82616 5.26098V12.9997H8.82619C8.82619 13.0478 8.78706 13.0869 8.739 13.0869Z" fill="black"/>
</svg>
