<svg width="51" height="41" viewBox="0 0 51 41" fill="none" xmlns="http://www.w3.org/2000/svg">
<g clip-path="url(#clip0_1_527)">
<path fill-rule="evenodd" clip-rule="evenodd" d="M9.27585 39.7221L26.0929 16.6729L2.03088 16.7209L2.20652 39.7701L9.27585 39.7221Z" fill="#FFE241"/>
<path d="M0.62561 15.1843V40.7305V40.7786H37.2017V40.7305V15.1843H0.62561ZM35.4014 38.8098H2.42587V17.1531H35.4014V38.8098V38.8098Z" fill="black"/>
<path d="M13.7984 0.778564V7.98145H7.21204V15.1843H9.0123V9.95023H13.7984H15.5986H41.9879V24.404V26.3728V31.6069H37.2018V33.5757H43.7881V33.5277V26.3728H50.3744V26.3248V0.778564H13.7984ZM48.5742 24.404H43.7881V7.98145H15.5986V2.74735H48.5742V24.404V24.404Z" fill="black"/>
</g>
<defs>
<clipPath id="clip0_1_527">
<rect width="49.7487" height="40" fill="white" transform="translate(0.62561 0.778564)"/>
</clipPath>
</defs>
</svg>
