<svg width="41" height="40" viewBox="0 0 41 40" fill="none" xmlns="http://www.w3.org/2000/svg">
<path d="M40.1436 19.9694C38.4293 4.25507 26.5721 0.802694 20.8578 1.04079V19.9694L30.8578 36.0408C37.715 31.4694 39.9055 23.4217 40.1436 19.9694Z" fill="#FFE241"/>
<path d="M20.5001 9.81933C16.7277 9.81933 12.9567 9.38484 9.296 8.52691C8.92497 8.44002 8.69462 8.07036 8.78152 7.69795C8.86841 7.32829 9.22979 7.09795 9.61186 7.18346C17.6022 9.05657 26.0946 8.82071 33.9953 6.49657C34.3677 6.39174 34.7457 6.59726 34.8519 6.96277C34.9594 7.32967 34.7512 7.71174 34.3857 7.81933C29.8739 9.14622 25.2022 9.81933 20.5001 9.81933Z" fill="#1A1A1A"/>
<path d="M34.1894 33.5434C34.1246 33.5434 34.0598 33.5337 33.9936 33.5144C25.2225 30.9337 15.777 30.9337 7.00597 33.5144C6.63493 33.6178 6.25562 33.4137 6.14942 33.0482C6.04183 32.6813 6.25011 32.2992 6.61562 32.1916C15.6432 29.5351 25.3577 29.5351 34.3853 32.1916C34.7508 32.2992 34.9591 32.6813 34.8515 33.0482C34.7632 33.3503 34.4873 33.5434 34.1894 33.5434Z" fill="#1A1A1A"/>
<path d="M19.6573 39.4426C19.5221 39.4426 19.3883 39.404 19.2683 39.3226C12.8311 34.9295 8.98834 27.7061 8.98834 19.9999C8.98834 13.7557 11.4449 7.87849 15.9083 3.4509C16.1801 3.17918 16.6173 3.1847 16.8835 3.45366C17.1525 3.72401 17.1497 4.16125 16.8808 4.42883C12.6808 8.59573 10.3677 14.1254 10.3677 19.9999C10.3677 27.2495 13.9856 34.0481 20.0477 38.1833C20.3621 38.3971 20.4421 38.8275 20.2283 39.1419C20.0932 39.3378 19.8766 39.4426 19.6573 39.4426Z" fill="#1A1A1A"/>
<path d="M21.4022 39.4429C21.1829 39.4429 20.9663 39.338 20.8325 39.1422C20.6187 38.8263 20.6987 38.3973 21.0132 38.1835C27.0753 34.0484 30.6932 27.2498 30.6932 20.0001C30.6932 12.7504 27.0753 5.95182 21.0132 1.81665C20.6987 1.60285 20.6187 1.17251 20.8325 0.858027C21.0477 0.543545 21.4781 0.466303 21.7912 0.677338C28.2284 5.07044 32.0712 12.2939 32.0712 20.0001C32.0712 27.7063 28.2284 34.9298 21.7912 39.3229C21.6725 39.4029 21.5374 39.4429 21.4022 39.4429Z" fill="#1A1A1A"/>
<path d="M20.5002 39.2372C20.1195 39.2372 19.8105 38.9282 19.8105 38.5475V1.45235C19.8105 1.07166 20.1195 0.762695 20.5002 0.762695C20.8809 0.762695 21.1899 1.07166 21.1899 1.45235V38.5475C21.1899 38.9296 20.8809 39.2372 20.5002 39.2372Z" fill="#1A1A1A"/>
<path d="M39.7371 20.6896H4.0212C3.64051 20.6896 3.33154 20.3806 3.33154 20C3.33154 19.6193 3.64051 19.3103 4.0212 19.3103H39.7384C40.1191 19.3103 40.4281 19.6193 40.4281 20C40.4281 20.3806 40.1191 20.6896 39.7371 20.6896Z" fill="#1A1A1A"/>
<path d="M20.5 40C9.47241 40 0.5 31.0276 0.5 20C0.5 15.1434 2.26276 10.4566 5.46552 6.8069C5.71655 6.52 6.15103 6.49241 6.43931 6.74345C6.72483 6.99448 6.75241 7.43034 6.50276 7.71724C3.52207 11.1145 1.87931 15.4772 1.87931 20C1.87931 30.2676 10.2324 38.6207 20.5 38.6207C30.7676 38.6207 39.1207 30.2676 39.1207 20C39.1207 9.73241 30.7676 1.37931 20.5 1.37931C16.2545 1.37931 12.2572 2.76966 8.94276 5.4C8.64483 5.63724 8.21172 5.58896 7.97448 5.28828C7.73724 4.99034 7.7869 4.55724 8.08621 4.32C11.6462 1.49379 15.9386 0 20.5 0C31.5276 0 40.5 8.97241 40.5 20C40.5 31.0276 31.5276 40 20.5 40Z" fill="#1A1A1A"/>
</svg>
