<svg width="15" height="15" viewBox="0 0 15 15" fill="none" xmlns="http://www.w3.org/2000/svg">
<path fill-rule="evenodd" clip-rule="evenodd" d="M12.4035 3.49652C12.4035 3.99363 12.0005 4.39652 11.5035 4.39652C11.0065 4.39652 10.6035 3.99363 10.6035 3.49652C10.6035 2.99941 11.0065 2.59652 11.5035 2.59652C12.0006 2.59652 12.4035 2.99941 12.4035 3.49652ZM7.5 9.99996C6.1193 9.99996 5.00004 8.8807 5.00004 7.5C5.00004 6.1193 6.1193 5.00004 7.5 5.00004C8.8807 5.00004 9.99996 6.1193 9.99996 7.5C9.99996 8.8807 8.8807 9.99996 7.5 9.99996ZM7.5 3.64863C5.37293 3.64863 3.64863 5.37293 3.64863 7.5C3.64863 9.62707 5.37293 11.3514 7.5 11.3514C9.62707 11.3514 11.3514 9.62707 11.3514 7.5C11.3514 5.37293 9.62707 3.64863 7.5 3.64863ZM7.5 1.35141C9.50262 1.35141 9.7398 1.35902 10.5306 1.39512C11.2618 1.42852 11.659 1.55063 11.9232 1.6534C12.2733 1.78945 12.5231 1.95199 12.7856 2.21449C13.0481 2.47687 13.2107 2.72672 13.3467 3.07687C13.4494 3.34113 13.5716 3.73828 13.605 4.46953C13.6411 5.26043 13.6487 5.49762 13.6487 7.50023C13.6487 9.50285 13.6411 9.74004 13.605 10.5308C13.5716 11.2621 13.4495 11.6592 13.3467 11.9235C13.2107 12.2735 13.0481 12.5234 12.7856 12.7859C12.5232 13.0484 12.2734 13.2109 11.9232 13.347C11.659 13.4496 11.2618 13.5718 10.5306 13.6052C9.7398 13.6413 9.50262 13.6489 7.5 13.6489C5.49727 13.6489 5.26008 13.6413 4.4693 13.6052C3.73805 13.5718 3.3409 13.4497 3.07664 13.347C2.7266 13.2109 2.47676 13.0484 2.21426 12.7859C1.95188 12.5235 1.78922 12.2736 1.65316 11.9235C1.55051 11.6592 1.42828 11.2621 1.39488 10.5308C1.35879 9.73992 1.35117 9.50273 1.35117 7.50023C1.35117 5.49762 1.35879 5.26043 1.39488 4.46953C1.42828 3.73828 1.55039 3.34113 1.65316 3.07687C1.78922 2.72684 1.95176 2.47699 2.21426 2.21449C2.47664 1.95199 2.72648 1.78945 3.07664 1.6534C3.3409 1.55074 3.73805 1.42852 4.4693 1.39512C5.2602 1.35902 5.49738 1.35141 7.5 1.35141ZM7.5 0C5.46316 0 5.2077 0.00867188 4.40777 0.0451172C3.60949 0.0815625 3.06422 0.208359 2.58727 0.39375C2.09402 0.585352 1.67578 0.841875 1.25883 1.25883C0.841875 1.67578 0.585352 2.09402 0.39375 2.58727C0.208359 3.06434 0.0815625 3.60949 0.0451172 4.40777C0.00867188 5.2077 0 5.46316 0 7.5C0 9.53684 0.00867188 9.7923 0.0451172 10.5922C0.0815625 11.3905 0.208359 11.9357 0.39375 12.4127C0.585352 12.906 0.841875 13.3242 1.25883 13.7412C1.67578 14.1581 2.09402 14.4145 2.58727 14.6062C3.06434 14.7916 3.60949 14.9184 4.40777 14.9549C5.2077 14.9913 5.46316 15 7.5 15C9.53684 15 9.7923 14.9913 10.5922 14.9549C11.3905 14.9184 11.9357 14.7916 12.4127 14.6062C12.906 14.4145 13.3242 14.1581 13.7412 13.7412C14.1581 13.3242 14.4145 12.906 14.6062 12.4127C14.7916 11.9357 14.9184 11.3905 14.9549 10.5922C14.9913 9.7923 15 9.53684 15 7.5C15 5.46316 14.9913 5.2077 14.9549 4.40777C14.9184 3.60949 14.7916 3.06434 14.6062 2.58727C14.4145 2.09402 14.1581 1.67578 13.7412 1.25883C13.3242 0.841875 12.906 0.585469 12.4127 0.39375C11.9357 0.208359 11.3905 0.0815625 10.5922 0.0451172C9.7923 0.00867188 9.53684 0 7.5 0Z" fill="white"/>
</svg>
