<svg width="44" height="45" viewBox="0 0 44 45" fill="none" xmlns="http://www.w3.org/2000/svg">
<path fill-rule="evenodd" clip-rule="evenodd" d="M20.4946 31.5566L29.5535 16.0133C29.5535 16.0133 25.7392 14.6782 25.5485 14.6782C25.3578 14.6782 18.8258 16.9191 18.8258 16.9191C18.8258 16.9191 16.3942 21.5917 16.3942 21.6871C16.3942 21.8301 16.3942 27.2655 16.3942 27.2655C16.3942 27.2655 17.9675 29.8878 18.1106 29.9832C18.2537 30.0785 20.4946 31.5566 20.4946 31.5566Z" fill="#FFE241"/>
<path d="M33.0339 42.9519H16.9184C10.9109 42.9519 6 38.0409 6 32.0335V15.9179C6 9.91045 10.9109 4.99951 16.9184 4.99951H33.0816C39.0892 4.99951 44 9.91045 44 15.9179V32.0811C43.9524 38.0409 39.0414 42.9519 33.0339 42.9519ZM16.9184 6.90667C11.9598 6.90667 7.9072 10.9594 7.9072 15.9179V32.0811C7.9072 37.0397 11.9598 41.0924 16.9184 41.0924H33.0816C38.0401 41.0924 42.0929 37.0397 42.0929 32.0811V15.9179C42.0452 10.9594 37.9925 6.90667 33.0339 6.90667H16.9184Z" fill="black"/>
<path d="M24.9757 33.7975C19.588 33.7975 15.1539 29.411 15.1539 23.9757C15.1539 18.588 19.5404 14.1538 24.9757 14.1538C30.4112 14.1538 34.7976 18.5402 34.7976 23.9757C34.7976 29.3633 30.3634 33.7975 24.9757 33.7975ZM24.9757 16.0609C20.637 16.0609 17.061 19.5892 17.061 23.9757C17.061 28.3144 20.5893 31.8904 24.9757 31.8904C29.3622 31.8904 32.8904 28.3621 32.8904 23.9757C32.8904 19.6369 29.3145 16.0609 24.9757 16.0609Z" fill="black"/>
<path d="M35.2277 11.627C34.6556 11.627 34.1311 11.8653 33.7019 12.2467C33.3205 12.6281 33.0822 13.2004 33.0822 13.7725C33.0822 14.3446 33.3205 14.869 33.7019 15.2982C34.0833 15.6796 34.6556 15.918 35.2277 15.918C35.7998 15.918 36.3243 15.6796 36.7534 15.2982C37.1348 14.9168 37.3732 14.3446 37.3732 13.7725C37.3732 13.2004 37.1348 12.6759 36.7534 12.2467C36.372 11.8177 35.7998 11.627 35.2277 11.627Z" fill="black"/>
<path d="M38.6 -0.000488281H31.4C28.4177 -0.000488281 26 2.41717 26 5.39951V12.5995C26 15.5818 28.4177 17.9995 31.4 17.9995H38.6C41.5823 17.9995 44 15.5818 44 12.5995V5.39951C44 2.41717 41.5823 -0.000488281 38.6 -0.000488281Z" fill="white"/>
<path d="M31.8909 -0.000488281H39.1091C40.4522 -0.000488281 41.6742 0.547365 42.5609 1.42725C43.4488 2.30851 44 3.52457 44 4.861V12.1394C44 13.4731 43.4488 14.6877 42.5636 15.5691L42.5609 15.5718C41.6728 16.4531 40.4508 16.9995 39.1104 16.9995H31.8909C30.5464 16.9995 29.323 16.4516 28.4364 15.5718L28.403 15.5344C27.5373 14.6573 27 13.4564 27 12.138V4.861C27 3.5232 27.5498 2.30851 28.4364 1.42725C29.323 0.545977 30.5451 -0.000488281 31.8909 -0.000488281ZM39.7368 4.29102L39.7465 4.30623H42.7529C42.6318 3.52043 42.2547 2.81486 41.7118 2.27392C41.0437 1.60987 40.1223 1.19759 39.1091 1.19759H37.8745L39.7368 4.29102ZM38.3464 4.30623L36.4743 1.19759H32.3683L34.2627 4.30623H38.3464ZM32.861 4.30623L31.0294 1.29859C30.36 1.45907 29.76 1.80355 29.2882 2.27392C28.7453 2.81347 28.3695 3.52043 28.2471 4.30623H32.861ZM42.7947 5.50431H28.2053V12.1394C28.2053 13.1314 28.6075 14.0347 29.2576 14.696L29.2882 14.7251C29.9563 15.3891 30.8791 15.8028 31.8909 15.8028H39.1091C40.1223 15.8028 41.0437 15.3906 41.7104 14.7278L41.7132 14.7251C42.3799 14.0624 42.7947 13.1466 42.7947 12.1394V5.50431ZM34.0915 7.60165L37.8258 10.0158C37.8857 10.0545 37.9399 10.1043 37.983 10.1652C38.1529 10.41 38.0902 10.7463 37.8438 10.915L34.1249 13.0968C34.0316 13.1728 33.9119 13.2185 33.7797 13.2185C33.4791 13.2185 33.2355 12.9764 33.2355 12.6775V8.04436H33.2382C33.2382 7.93782 33.2703 7.82992 33.3357 7.73584C33.5083 7.49097 33.8465 7.43148 34.0915 7.60165Z" fill="black"/>
</svg>
