<svg width="16" height="15" viewBox="0 0 16 15" fill="none" xmlns="http://www.w3.org/2000/svg">
<g clip-path="url(#clip0_1_3240)">
<path d="M15.7045 9.20254V15.0147H12.3434V9.58414C12.3434 8.21917 11.8591 7.29452 10.6409 7.29452C9.71624 7.29452 9.15851 7.92563 8.909 8.52739C8.82094 8.74755 8.79159 9.04109 8.79159 9.34931V15H5.43053C5.43053 15 5.47456 5.82681 5.43053 4.8728H8.79159V6.31115C8.79159 6.32583 8.77691 6.34051 8.76223 6.34051H8.79159V6.31115C9.2319 5.62133 10.0391 4.63796 11.8297 4.63796C14.046 4.63796 15.7045 6.091 15.7045 9.20254ZM1.90802 0C0.748532 0 0 0.748532 0 1.74657C0 2.71526 0.733855 3.49315 1.86399 3.49315H1.89335C3.06751 3.49315 3.80137 2.71526 3.80137 1.74657C3.77202 0.748532 3.05284 0 1.90802 0ZM0.205479 15H3.56654V4.8728H0.205479V15Z" fill="white"/>
</g>
<defs>
<clipPath id="clip0_1_3240">
<rect width="15.7045" height="15" fill="white"/>
</clipPath>
</defs>
</svg>
