<svg width="33" height="30" viewBox="0 0 33 30" fill="none" xmlns="http://www.w3.org/2000/svg">
<path fill-rule="evenodd" clip-rule="evenodd" d="M9.85609 0L11.4834 0.951894L6.75496 9.15046H1.90367V20.8495H6.75496V22.7533H0V7.24667H5.6496L9.85609 0ZM12.4967 21.7093C16.2119 23.8588 20.9404 22.5691 23.0897 18.8843C25.2083 15.1689 23.9494 10.4401 20.2342 8.29069C16.5189 6.14125 11.7905 7.43091 9.64116 11.1157C7.52256 14.8311 8.81215 19.5599 12.4967 21.7093ZM16.3654 5.37359C21.6773 5.37359 26.0066 9.70317 26.0066 15.0154C26.0066 20.3275 21.708 24.6264 16.3654 24.6264C11.0536 24.6264 6.75496 20.3275 6.75496 15.0154C6.75496 9.70317 11.0536 5.37359 16.3654 5.37359ZM26.0066 7.24667H32.7615V22.7226H27.1119L22.9054 30L21.2781 29.0481L26.0066 20.8495H30.8579V9.15046H26.0066V7.24667Z" fill="white"/>
<path fill-rule="evenodd" clip-rule="evenodd" d="M20.234 8.2907C16.5187 6.14126 11.7903 7.43092 9.64097 11.1157C7.49167 14.8311 8.78125 19.5599 12.4658 21.7093L20.234 8.2907Z" fill="#FFE241"/>
</svg>
