<svg width="37" height="41" viewBox="0 0 37 41" fill="none" xmlns="http://www.w3.org/2000/svg">
<path fill-rule="evenodd" clip-rule="evenodd" d="M11.6007 26.9858L16.1663 18.3867C16.1663 18.3867 10.3324 14.7251 10.1802 14.7251C10.028 14.7251 9.92658 22.6585 9.92658 22.6585C9.92658 22.6585 9.41928 25.5434 9.52074 25.6544C9.6222 25.7653 11.6007 26.9858 11.6007 26.9858Z" fill="#FFE241"/>
<path fill-rule="evenodd" clip-rule="evenodd" d="M21.0873 28.4838L23.7759 16.7778C23.7759 16.7778 19.0074 19.2189 18.8552 19.2744C18.703 19.3298 19.0074 24.3229 19.0074 24.3229C19.0074 24.3229 18.6015 32.9776 19.1596 29.9817C19.2103 29.8153 21.0873 28.4838 21.0873 28.4838Z" fill="#FFE241"/>
<path d="M36.8134 17.5546V10.6198H30.4722V13.3937H28.5445L27.7835 13.8375L19.1595 9.34379V7.45752H21.6452V0.522705H15.304V7.45752H17.7898V9.34379L9.21646 13.8375L8.45552 13.3937H6.52779V10.6198H0.186584V17.5546H6.52779V14.9471H8.45552L9.21646 15.3909V25.599L8.45552 26.0428H6.52779V23.3244H0.186584V30.2592H6.52779V27.5962H8.45552L9.97741 26.7086L17.7898 31.5907V33.5324H15.304V40.4672H21.6452V33.5879H19.1595V31.5907L26.9718 26.6531L28.4937 27.5407H30.4215V30.2037H36.7627V23.3244H30.4722V26.0428H28.5445L27.7835 25.599V15.3909L28.5445 14.9471H30.4722V17.5546H36.8134ZM17.2318 2.63089H19.7175V5.34933H17.2318V2.63089ZM4.60006 15.4464H2.11431V12.728H4.60006V15.4464ZM4.60006 28.151H2.11431V25.4326H4.60006V28.151ZM19.7175 38.4145H17.2318V35.6961H19.7175V38.4145ZM32.3999 25.4326H34.8857V28.151H32.3999V25.4326ZM18.5 11.341L24.7397 14.6142L18.5 18.5532L14.1372 15.7793L12.2602 14.6142L18.5 11.341ZM17.5361 28.9832L11.1442 24.9887V16.3341L12.2095 16.9998L17.5361 20.384V28.9832ZM25.8558 24.9887L19.4639 28.9832V20.3285L25.8558 16.2786V24.9887ZM32.3999 12.728H34.8857V15.4464H32.3999V12.728Z" fill="#1A1A1A"/>
</svg>
