<svg width="26" height="25" viewBox="0 0 26 25" fill="none" xmlns="http://www.w3.org/2000/svg">
<path fill-rule="evenodd" clip-rule="evenodd" d="M7.80141 16.5394L10.9221 11.165C10.9221 11.165 6.93456 8.87646 6.83054 8.87646C6.72652 8.87646 6.65717 13.8349 6.65717 13.8349C6.65717 13.8349 6.31043 15.6379 6.37978 15.7073C6.44912 15.7766 7.80141 16.5394 7.80141 16.5394Z" fill="#FFE241"/>
<path fill-rule="evenodd" clip-rule="evenodd" d="M14.2857 17.4757L16.1235 10.1594C16.1235 10.1594 12.8641 11.6851 12.7601 11.7198C12.6561 11.7544 12.8641 14.8751 12.8641 14.8751C12.8641 14.8751 12.5867 20.2842 12.9681 18.4118C13.0028 18.3078 14.2857 17.4757 14.2857 17.4757Z" fill="#FFE241"/>
<path d="M25.0347 10.6449V6.31068H20.7004V8.04438H19.3828L18.8627 8.32178L12.9681 5.51318V4.33426H14.6671V0H10.3329V4.33426H12.0319V5.51318L6.17198 8.32178L5.65187 8.04438H4.33426V6.31068H0V10.6449H4.33426V9.01526H5.65187L6.17198 9.29265V15.6727L5.65187 15.9501H4.33426V14.251H0V18.5853H4.33426V16.9209H5.65187L6.69209 16.3662L12.0319 19.4175V20.6311H10.3329V24.9653H14.6671V20.6657H12.9681V19.4175L18.3079 16.3315L19.3481 16.8863H20.6657V18.5506H25V14.251H20.7004V15.9501H19.3828L18.8627 15.6727V9.29265L19.3828 9.01526H20.7004V10.6449H25.0347ZM11.6505 1.31761H13.3495V3.01664H11.6505V1.31761ZM3.01664 9.32732H1.31761V7.62829H3.01664V9.32732ZM3.01664 17.2677H1.31761V15.5687H3.01664V17.2677ZM13.3495 23.6824H11.6505V21.9834H13.3495V23.6824ZM22.018 15.5687H23.7171V17.2677H22.018V15.5687ZM12.5173 6.76144L16.7822 8.80721L12.5173 11.2691L9.53537 9.53537L8.25243 8.80721L12.5173 6.76144ZM11.8585 17.7878L7.4896 15.2913V9.88211L8.21775 10.2982L11.8585 12.4133V17.7878ZM17.5451 15.2913L13.1761 17.7878V12.3786L17.5451 9.84743V15.2913ZM22.018 7.62829H23.7171V9.32732H22.018V7.62829Z" fill="white"/>
</svg>
