<svg width="16" height="16" viewBox="0 0 16 16" fill="none" xmlns="http://www.w3.org/2000/svg">
<path d="M8.75239 12.961L10.6042 11.1093C10.9468 10.7666 11.4859 10.7189 11.8833 10.9962L14.3293 12.7021C14.8017 13.0315 14.8615 13.7078 14.4543 14.1151V14.1151C13.7972 14.7721 12.8536 15.0575 11.9731 14.7605C10.3364 14.2085 7.5846 13.0153 5.28476 10.7154C2.98492 8.41558 1.79165 5.66375 1.23968 4.02711C0.942724 3.14659 1.22805 2.20297 1.88512 1.5459V1.5459C2.29233 1.13869 2.96863 1.19849 3.29807 1.67084L5.00403 4.11685C5.28124 4.51432 5.23358 5.05335 4.89092 5.39601L3.03913 7.2478" stroke="white" stroke-width="0.7" stroke-linecap="round"/>
</svg>
