<svg width="41" height="41" viewBox="0 0 41 41" fill="none" xmlns="http://www.w3.org/2000/svg">
<g clip-path="url(#clip0_1_538)">
<path fill-rule="evenodd" clip-rule="evenodd" d="M19.4088 7.08419L22.4858 1.82544C22.4858 1.82544 1.73047 2.38487 1.73047 2.49676C1.73047 2.60865 1.73047 6.9723 1.73047 6.9723L19.4088 7.08419Z" fill="#FFE241"/>
<path d="M0.5 0.650635V7.92336H1.84266V31.8674H0.5V34.0492H19.4091V35.2241C18.4021 35.6716 17.6749 36.6226 17.6749 37.7975C17.6749 39.3639 18.9056 40.5946 20.472 40.5946C22.0384 40.5946 23.2693 39.3639 23.2693 37.7975C23.2693 36.6226 22.5419 35.6156 21.535 35.2241V34.0492H40.444V31.8674H39.1014V7.92336H40.444V0.650635H0.5ZM20.472 38.5247C20.0805 38.5247 19.8006 38.245 19.8006 37.8534C19.8006 37.4618 20.0805 37.1822 20.472 37.1822C20.8637 37.1822 21.1434 37.4618 21.1434 37.8534C21.1434 38.189 20.8637 38.5247 20.472 38.5247ZM36.9755 31.8674H4.02448V7.92336H36.9755V31.8674ZM38.3182 5.74155H2.68182V2.83246H38.3182V5.74155Z" fill="#1A1A1A"/>
<path d="M20.472 13.7416C23.8847 13.7416 26.626 16.4829 26.626 19.8955C26.626 23.308 23.8847 26.0492 20.472 26.0492C17.0596 26.0492 14.3183 23.308 14.3183 19.8955C14.3183 16.4829 17.0596 13.7416 20.472 13.7416ZM20.472 11.6157C15.8847 11.6157 12.1924 15.308 12.1924 19.8955C12.1924 24.4828 15.8847 28.1752 20.472 28.1752C25.0596 28.1752 28.7519 24.4828 28.7519 19.8955C28.7519 15.308 25.0596 11.6157 20.472 11.6157Z" fill="#1A1A1A"/>
<path d="M23.1015 19.8955L18.5141 16.9304V22.8605L23.1015 19.8955Z" fill="#1A1A1A"/>
</g>
<defs>
<clipPath id="clip0_1_538">
<rect width="40" height="40" fill="white" transform="translate(0.5 0.650635)"/>
</clipPath>
</defs>
</svg>
